<svg width="301" height="24" viewBox="0 0 301 24" fill="none" xmlns="http://www.w3.org/2000/svg">
<path d="M0.747864 20.2109L2.57404 17.5879C3.9243 19.1816 5.47378 19.9785 7.22247 19.9785C9.6131 19.9785 10.7973 18.8164 10.7752 16.4922C10.7752 15.319 9.94513 14.3893 8.28497 13.7031C5.58445 12.5742 4.07924 11.8991 3.76935 11.6777C2.13133 10.5488 1.32338 8.8112 1.34552 6.46484C1.36766 4.60547 2.10919 3.08919 3.57013 1.91602C4.80971 0.919922 6.15997 0.421875 7.62091 0.421875C9.96726 0.421875 12.1033 1.22982 14.0291 2.8457L12.6678 5.70117C11.1183 4.24023 9.65737 3.50977 8.28497 3.50977C7.35529 3.50977 6.66909 3.69792 6.22638 4.07422C5.67299 4.51693 5.40737 5.32487 5.4295 6.49805C5.4295 7.53841 6.22638 8.37956 7.82013 9.02148C10.2993 10.0176 11.7824 10.7038 12.2693 11.0801C13.8852 12.2754 14.6821 14.0573 14.66 16.4258C14.66 18.75 13.9074 20.5319 12.4022 21.7715C11.0962 22.8118 9.45815 23.332 7.4881 23.332C4.47768 23.332 2.23094 22.2917 0.747864 20.2109ZM22.2422 1.21875H26.2598V23H22.2422V1.21875ZM53.1331 8.49023L47.9534 23.0332H44.4339L39.221 8.35742V23H35.6351V1.18555H40.7815L46.7249 17.2227L52.7679 1.18555H57.5823V23H53.1331V8.49023ZM70.9419 14.2012V23H67.024V1.21875L73.399 1.11914C75.2583 1.09701 76.8299 1.7168 78.1138 2.97852C79.4198 4.2181 80.0728 5.77865 80.0728 7.66016C80.0728 9.40885 79.3091 10.9473 77.7818 12.2754C76.2766 13.6035 74.5832 14.2676 72.7017 14.2676C72.4361 14.2676 71.8495 14.2454 70.9419 14.2012ZM70.9419 3.64258V11.877H72.0376C73.1665 11.877 74.1294 11.4674 74.9263 10.6484C75.7453 9.80729 76.1548 8.8444 76.1548 7.75977C76.1548 5.16992 74.9152 3.77539 72.4361 3.57617C72.2811 3.55404 72.0266 3.5651 71.6724 3.60938C71.3404 3.63151 71.0969 3.64258 70.9419 3.64258ZM87.9207 1.21875H91.8718V20.1113H100.671V23H87.9207V1.21875ZM113.632 9.71875H121.368V12.7402L113.632 12.707V19.9785H121.8V23H109.714V1.25195H121.899V4.14062H113.632V9.71875ZM142.875 20.2109L144.701 17.5879C146.051 19.1816 147.6 19.9785 149.349 19.9785C151.74 19.9785 152.924 18.8164 152.902 16.4922C152.902 15.319 152.072 14.3893 150.412 13.7031C147.711 12.5742 146.206 11.8991 145.896 11.6777C144.258 10.5488 143.45 8.8112 143.472 6.46484C143.494 4.60547 144.236 3.08919 145.697 1.91602C146.936 0.919922 148.287 0.421875 149.748 0.421875C152.094 0.421875 154.23 1.22982 156.156 2.8457L154.794 5.70117C153.245 4.24023 151.784 3.50977 150.412 3.50977C149.482 3.50977 148.796 3.69792 148.353 4.07422C147.8 4.51693 147.534 5.32487 147.556 6.49805C147.556 7.53841 148.353 8.37956 149.947 9.02148C152.426 10.0176 153.909 10.7038 154.396 11.0801C156.012 12.2754 156.809 14.0573 156.787 16.4258C156.787 18.75 156.034 20.5319 154.529 21.7715C153.223 22.8118 151.585 23.332 149.615 23.332C146.604 23.332 144.358 22.2917 142.875 20.2109ZM168.287 9.71875H176.023V12.7402L168.287 12.707V19.9785H176.455V23H164.369V1.25195H176.554V4.14062H168.287V9.71875ZM189.516 14.0684H188.752V23H184.834V1.21875C185.454 1.21875 186.616 1.19661 188.32 1.15234C189.56 1.13021 190.578 1.11914 191.375 1.11914C193.434 1.11914 195.005 1.68359 196.09 2.8125C197.197 3.91927 197.739 5.45768 197.717 7.42773C197.695 8.99935 197.241 10.3607 196.355 11.5117C195.559 12.5299 194.551 13.2272 193.334 13.6035C195.127 16.1048 197.717 19.0599 201.103 22.4688L196.09 23.3652C194.43 21.6608 192.238 18.5618 189.516 14.0684ZM188.752 3.64258V11.6777H190.146C192.648 11.6777 193.898 10.25 193.898 7.39453C193.898 6.44271 193.71 5.63477 193.334 4.9707C192.781 3.99674 191.873 3.5319 190.611 3.57617L188.752 3.64258ZM212.869 23.332L205.432 1.7168L209.649 0.654297L214.895 16.6582L219.809 0.621094L223.328 1.75L215.858 23.332H212.869ZM230.512 1.21875H234.53V23H230.512V1.21875ZM242.477 11.8105C242.477 8.86654 243.252 6.33203 244.801 4.20703C246.594 1.77214 249.018 0.554688 252.073 0.554688C253.999 0.554688 256.223 1.34049 258.747 2.91211L257.319 5.56836C255.88 4.72721 255.15 4.28451 255.128 4.24023C254.309 3.86393 253.467 3.66471 252.604 3.64258C250.789 3.64258 249.361 4.67188 248.321 6.73047C247.48 8.36849 247.059 10.1836 247.059 12.1758C247.059 14.3229 247.613 16.138 248.719 17.6211C249.76 19.0156 251.022 19.724 252.505 19.7461C253.301 19.7461 254.054 19.6022 254.762 19.3145C255.316 19.1152 256.19 18.6725 257.385 17.9863L258.979 20.6426C257.474 21.6165 256.301 22.2806 255.46 22.6348C254.375 23.0553 253.18 23.2656 251.874 23.2656C248.797 23.2656 246.406 22.0703 244.702 19.6797C243.219 17.5547 242.477 14.9316 242.477 11.8105ZM271.177 9.71875H278.913V12.7402L271.177 12.707V19.9785H279.345V23H267.259V1.25195H279.444V4.14062H271.177V9.71875ZM286.396 20.2109L288.222 17.5879C289.572 19.1816 291.122 19.9785 292.87 19.9785C295.261 19.9785 296.445 18.8164 296.423 16.4922C296.423 15.319 295.593 14.3893 293.933 13.7031C291.232 12.5742 289.727 11.8991 289.417 11.6777C287.779 10.5488 286.971 8.8112 286.993 6.46484C287.015 4.60547 287.757 3.08919 289.218 1.91602C290.458 0.919922 291.808 0.421875 293.269 0.421875C295.615 0.421875 297.751 1.22982 299.677 2.8457L298.316 5.70117C296.766 4.24023 295.305 3.50977 293.933 3.50977C293.003 3.50977 292.317 3.69792 291.874 4.07422C291.321 4.51693 291.055 5.32487 291.077 6.49805C291.077 7.53841 291.874 8.37956 293.468 9.02148C295.947 10.0176 297.43 10.7038 297.917 11.0801C299.533 12.2754 300.33 14.0573 300.308 16.4258C300.308 18.75 299.555 20.5319 298.05 21.7715C296.744 22.8118 295.106 23.332 293.136 23.332C290.126 23.332 287.879 22.2917 286.396 20.2109Z" fill="#106466"/>
</svg>
